<svg width="900" height="700" viewBox="0 0 900 700" fill="none" xmlns="http://www.w3.org/2000/svg">
  <rect width="900" height="700" fill="none"/>
  <ellipse cx="460" cy="355" rx="350" ry="250" fill="#0A84FF" fill-opacity="0.08"/>
  <ellipse cx="455" cy="345" rx="270" ry="185" fill="#18D6FF" fill-opacity="0.05"/>
  <rect x="155" y="110" width="590" height="390" rx="34" fill="#08192D" stroke="#163B68" stroke-width="2"/>
  <rect x="180" y="139" width="540" height="52" rx="18" fill="#0B223D"/>
  <circle cx="210" cy="165" r="7" fill="#18D6FF"/>
  <circle cx="234" cy="165" r="7" fill="#0A84FF"/>
  <circle cx="258" cy="165" r="7" fill="#6B7A90"/>
  <rect x="541" y="154" width="147" height="22" rx="11" fill="#102F52"/>
  <rect x="185" y="215" width="166" height="100" rx="20" fill="#0B223D" stroke="#17406F"/>
  <rect x="373" y="215" width="166" height="100" rx="20" fill="#0B223D" stroke="#17406F"/>
  <rect x="561" y="215" width="154" height="100" rx="20" fill="#0B223D" stroke="#17406F"/>
  <path d="M213 282L245 252L274 267L318 230" stroke="#18D6FF" stroke-width="6" stroke-linecap="round" stroke-linejoin="round"/>
  <rect x="405" y="248" width="24" height="38" rx="7" fill="#0A84FF"/>
  <rect x="444" y="232" width="24" height="54" rx="7" fill="#18D6FF"/>
  <rect x="483" y="260" width="24" height="26" rx="7" fill="#0A84FF" fill-opacity="0.65"/>
  <circle cx="638" cy="265" r="38" stroke="#18D6FF" stroke-width="11" stroke-opacity="0.95"/>
  <path d="M638 227C659 227 676 244 676 265" stroke="#0A84FF" stroke-width="11" stroke-linecap="round"/>
  <rect x="185" y="342" width="350" height="122" rx="22" fill="#0B223D" stroke="#17406F"/>
  <rect x="560" y="342" width="155" height="122" rx="22" fill="#0B223D" stroke="#17406F"/>
  <path d="M210 424C240 380 281 415 313 383C352 344 389 391 422 357C451 328 487 359 514 339" stroke="#18D6FF" stroke-width="5" stroke-linecap="round"/>
  <path d="M210 444H515" stroke="#193E6A" stroke-width="3" stroke-linecap="round"/>
  <path d="M210 372H515" stroke="#193E6A" stroke-width="3" stroke-linecap="round"/>
  <rect x="590" y="373" width="95" height="14" rx="7" fill="#163B68"/>
  <rect x="590" y="401" width="76" height="14" rx="7" fill="#0A84FF"/>
  <rect x="590" y="429" width="55" height="14" rx="7" fill="#18D6FF"/>
  <rect x="95" y="445" width="220" height="115" rx="28" fill="#0B223D" stroke="#18D6FF" stroke-opacity="0.25"/>
  <rect x="120" y="476" width="82" height="13" rx="6.5" fill="#18D6FF"/>
  <rect x="120" y="505" width="155" height="12" rx="6" fill="#193E6A"/>
  <rect x="120" y="531" width="126" height="12" rx="6" fill="#193E6A"/>
  <rect x="612" y="65" width="180" height="78" rx="26" fill="#0B223D" stroke="#18D6FF" stroke-opacity="0.3"/>
  <path d="M644 104H752" stroke="#18D6FF" stroke-width="10" stroke-linecap="round"/>
  <circle cx="450" cy="600" r="8" fill="#18D6FF"/>
  <circle cx="493" cy="600" r="5" fill="#0A84FF"/>
  <circle cx="407" cy="600" r="5" fill="#0A84FF"/>
</svg>
