<svg width="560" height="560" viewBox="0 0 560 560" fill="none" xmlns="http://www.w3.org/2000/svg">
  <ellipse cx="280" cy="454" rx="140" ry="24" fill="#0A84FF" fill-opacity="0.16"/>
  <rect x="168" y="134" width="224" height="184" rx="56" fill="#0B223D" stroke="#18D6FF" stroke-opacity="0.45" stroke-width="4"/>
  <rect x="196" y="171" width="168" height="88" rx="32" fill="#06111F" stroke="#163B68"/>
  <circle cx="245" cy="214" r="15" fill="#18D6FF"/>
  <circle cx="315" cy="214" r="15" fill="#18D6FF"/>
  <path d="M249 248C267 264 294 264 312 248" stroke="#F5F9FF" stroke-width="7" stroke-linecap="round"/>
  <path d="M280 134V92" stroke="#18D6FF" stroke-width="8" stroke-linecap="round"/>
  <circle cx="280" cy="78" r="19" fill="#18D6FF"/>
  <rect x="206" y="319" width="148" height="118" rx="36" fill="#0B223D" stroke="#17406F" stroke-width="3"/>
  <rect x="231" y="346" width="98" height="16" rx="8" fill="#18D6FF" fill-opacity="0.85"/>
  <rect x="231" y="378" width="66" height="12" rx="6" fill="#0A84FF"/>
  <path d="M206 356C168 364 144 394 142 431" stroke="#18D6FF" stroke-width="13" stroke-linecap="round"/>
  <path d="M354 356C397 364 421 395 423 431" stroke="#18D6FF" stroke-width="13" stroke-linecap="round"/>
  <circle cx="142" cy="438" r="20" fill="#0B223D" stroke="#18D6FF" stroke-width="6"/>
  <circle cx="423" cy="438" r="20" fill="#0B223D" stroke="#18D6FF" stroke-width="6"/>
  <path d="M240 437V472" stroke="#18D6FF" stroke-width="12" stroke-linecap="round"/>
  <path d="M320 437V472" stroke="#18D6FF" stroke-width="12" stroke-linecap="round"/>
  <path d="M216 481H257" stroke="#F5F9FF" stroke-width="12" stroke-linecap="round"/>
  <path d="M303 481H344" stroke="#F5F9FF" stroke-width="12" stroke-linecap="round"/>
  <path d="M404 146L451 110" stroke="#0A84FF" stroke-width="7" stroke-linecap="round"/>
  <path d="M156 146L109 110" stroke="#0A84FF" stroke-width="7" stroke-linecap="round"/>
</svg>
